#!OML:ASF F:\VICON\USERDATA\INSTALL\rory3\rory3.ASF
:FULLY-SPECIFIED
:DEGREES
346
root 0.309628 17.9924 31.7027 -3.62428 -2.81717 -6.71793
lowerback 11.5249 0.785275 3.82552
upperback 0.116303 1.69157 2.11339
thorax -6.30763 0.743956 -0.215378
lowerneck -16.2094 -3.10409 -1.62951
upperneck 21.0398 -4.27368 1.56982
head 9.37969 -1.94861 0.265276
rclavicle -2.30466e-014 1.59028e-015
rhumerus -29.6192 -14.7205 -80.5383
rradius 29.064
rwrist 2.84181
rhand -17.396 20.5529
rfingers 7.12502
rthumb 8.8532 -9.24136
lclavicle -2.30466e-014 1.59028e-015
lhumerus -30.5594 2.86705 83.0427
lradius 26.8197
lwrist 7.36356
lhand -27.2898 20.8691
lfingers 7.12502
lthumb -0.69997 50.8477
rfemur -7.8317 3.74545 33.6686
rtibia 28.9784
rfoot -14.0592 -6.22437
rtoes 8.47309
lfemur -19.3323 2.25727 -12.9939
ltibia 66.7693
lfoot -5.20118 -2.43747
ltoes -9.33605
347
root 0.315148 17.9767 31.8587 -3.48214 -2.90604 -6.58717
lowerback 11.5365 0.863756 3.84242
upperback 0.0792609 1.79264 1.99574
thorax -6.34592 0.790043 -0.365806
lowerneck -16.4664 -3.14684 -1.62432
upperneck 21.2094 -4.3381 1.58129
head 9.48794 -1.97316 0.254776
rclavicle -7.1842e-015 -2.34566e-014
rhumerus -29.2327 -14.5675 -80.6468
rradius 29.4211
rwrist 2.69663
rhand -17.1681 21.8119
rfingers 7.12502
rthumb 9.07317 -7.97299
lclavicle -7.1842e-015 -2.34566e-014
lhumerus -30.7851 2.98997 83.0701
lradius 26.4249
lwrist 7.31376
lhand -27.4688 20.9407
lfingers 7.12502
lthumb -0.872827 50.9186
rfemur -7.47569 3.91122 33.5578
rtibia 29.1248
rfoot -14.5741 -6.42225
rtoes 8.22156
lfemur -20.5098 2.11682 -13.2252
ltibia 66.0112
lfoot -6.04252 -1.65532
ltoes -9.50369
348
root 0.317603 17.9508 32.0077 -3.3367 -3.0857 -6.77038
lowerback 11.6566 0.957365 4.15716
upperback -0.0221863 1.96923 1.97399
thorax -6.50501 0.862034 -0.597864
lowerneck -16.4288 -3.22501 -1.74402
upperneck 21.1487 -4.45017 1.73219
head 9.46856 -2.01856 0.312845
rclavicle -2.65781e-014 -1.07344e-014
rhumerus -28.9761 -14.49 -80.6667
rradius 29.7561
rwrist 2.7963
rhand -17.0958 22.1068
rfingers 7.12502
rthumb 9.14289 -7.675
lclavicle -2.65781e-014 -1.07344e-014
lhumerus -31.2155 3.03988 83.1203
lradius 26.2982
lwrist 7.27958
lhand -28.1856 19.8866
lfingers 7.12502
lthumb -1.56516 49.8606
rfemur -7.13605 4.20382 33.8388
rtibia 29.2877
rfoot -15.0449 -6.72712
rtoes 7.84469
lfemur -21.5321 2.10113 -13.0334
ltibia 65.2228
lfoot -6.9851 -0.784888
ltoes -9.02151
349
root 0.324298 17.9251 32.1679 -3.29988 -3.45963 -7.37869
lowerback 11.7659 1.04811 4.90834
upperback -0.00429623 2.20354 2.05918
thorax -6.51559 0.953411 -0.970611
lowerneck -16.4489 -3.25679 -1.66689
upperneck 20.9938 -4.51581 1.75462
head 9.41798 -2.04142 0.299973
rclavicle 1.92759e-014 5.96354e-015
rhumerus -28.4735 -14.1275 -80.857
rradius 29.99
rwrist 2.55564
rhand -17.5267 22.3359
rfingers 7.12502
rthumb 8.72709 -7.46373
lclavicle 1.92759e-014 5.96354e-015
lhumerus -31.6098 3.04623 83.1398
lradius 26.4543
lwrist 7.1095
lhand -28.5775 19.4475
lfingers 7.12502
lthumb -1.94368 49.4184
rfemur -6.56188 4.35764 34.5471
rtibia 29.4032
rfoot -15.6429 -6.73278
rtoes 7.76666
lfemur -22.1644 2.25766 -12.3857
ltibia 64.3036
lfoot -7.82645 0.145594
ltoes -10.6094
350
root 0.333909 17.9179 32.3377 -3.25341 -3.53866 -7.10242
lowerback 11.836 1.09008 4.81892
upperback -0.013001 2.24189 1.90769
thorax -6.55918 0.971325 -1.08857
lowerneck -16.6098 -3.22483 -1.66769
upperneck 20.9678 -4.47938 1.80267
head 9.43928 -2.0177 0.318963
rclavicle 8.03214e-015 -1.63003e-014
rhumerus -27.921 -13.58 -81.129
rradius 30.2607
rwrist 2.04398
rhand -17.9594 22.4535
rfingers 7.12502
rthumb 8.30953 -7.36306
lclavicle 8.03214e-015 -1.63003e-014
lhumerus -32.0552 3.32586 83.0592
lradius 26.7224
lwrist 6.62308
lhand -28.1765 20.6656
lfingers 7.12502
lthumb -1.55636 50.6396
rfemur -6.02001 4.32473 34.2484
rtibia 29.478
rfoot -16.3438 -6.90646
rtoes 6.59431
lfemur -22.9213 2.05217 -12.812
ltibia 63.0738
lfoot -8.19167 1.06486
ltoes -10.3826
351
root 0.334291 17.9146 32.5055 -3.21664 -3.59194 -6.9266
lowerback 11.9544 1.14545 4.69256
upperback -0.0554724 2.30331 1.84181
thorax -6.66991 1.00112 -1.10135
lowerneck -16.5321 -3.22787 -1.86301
upperneck 20.7731 -4.46425 1.96159
head 9.36554 -2.01057 0.410208
rclavicle 2.34877e-014 1.78906e-014
rhumerus -27.5859 -12.876 -81.3097
rradius 30.7101
rwrist 1.4831
rhand -18.088 22.1443
rfingers 7.12502
rthumb 8.18539 -7.67713
lclavicle 2.34877e-014 1.78906e-014
lhumerus -32.5446 3.4179 83.1117
lradius 26.7407
lwrist 6.91994
lhand -27.9198 20.5431
lfingers 7.12502
lthumb -1.30848 50.5188
rfemur -5.46083 4.56479 34.1584
rtibia 29.4507
rfoot -16.8416 -7.39965
rtoes 5.86466
lfemur -23.8964 1.72601 -12.998
ltibia 61.5435
lfoot -8.22722 1.67948
ltoes -7.25462
352
root 0.333952 17.8879 32.6646 -3.12114 -3.83779 -7.21182
lowerback 11.9886 1.23749 5.01206
upperback -0.112189 2.47949 1.90549
thorax -6.73113 1.07518 -1.24475
lowerneck -16.1636 -3.2621 -1.95992
upperneck 20.3728 -4.4877 1.99296
head 9.16229 -2.03249 0.44205
rclavicle -2.31211e-014 -1.09332e-014
rhumerus -27.0631 -12.5581 -81.3293
rradius 30.6037
rwrist 1.16363
rhand -18.1942 22.3711
rfingers 7.12502
rthumb 8.08292 -7.45429
lclavicle -2.31211e-014 -1.09332e-014
lhumerus -33.0299 3.45374 83.1728
lradius 26.6503
lwrist 7.15836
lhand -28.883 17.0217
lfingers 7.12502
lthumb -2.23875 46.9897
rfemur -4.92264 5.06332 34.6098
rtibia 29.4222
rfoot -17.2046 -7.90299
rtoes 6.2761
lfemur -24.461 1.69318 -12.643
ltibia 60.0449
lfoot -8.61156 2.51969
ltoes -6.20145
353
root 0.334857 17.8719 32.8187 -2.97955 -3.97079 -7.48426
lowerback 12.0001 1.29599 5.31737
upperback -0.101535 2.6026 1.94309
thorax -6.70857 1.12626 -1.39699
lowerneck -16.2476 -3.27448 -1.837
upperneck 20.2185 -4.51166 1.9097
head 9.11959 -2.04374 0.38997
rclavicle -1.21818e-014 -1.98785e-016
rhumerus -26.1595 -12.5185 -81.3998
rradius 30.1705
rwrist 1.05716
rhand -18.5971 22.8375
rfingers 7.12502
rthumb 7.69408 -7.00257
lclavicle -1.21818e-014 -1.98785e-016
lhumerus -33.2885 3.63832 83.1293
lradius 26.704
lwrist 6.77624
lhand -32.4054 7.86645
lfingers 7.12502
lthumb -5.64012 37.7714
rfemur -4.4033 5.44936 35.0009
rtibia 29.3133
rfoot -17.3204 -8.57242
rtoes 7.97981
lfemur -25.1686 1.4393 -12.3167
ltibia 58.3457
lfoot -8.48157 3.38085
ltoes -4.52942
354
root 0.338597 17.8655 32.976 -2.80717 -4.01521 -7.71916
lowerback 12.0971 1.28887 5.60834
upperback -0.124386 2.64302 1.95394
thorax -6.77368 1.13395 -1.5585
lowerneck -16.4738 -3.23863 -1.73711
upperneck 20.1617 -4.47566 1.87842
head 9.1374 -2.02092 0.364227
rclavicle -5.23673e-015 9.34288e-015
rhumerus -25.5834 -12.3905 -81.555
rradius 30.3418
rwrist 0.89677
rhand -18.5339 23.1346
rfingers 7.12502
rthumb 7.75507 -6.70323
lclavicle -5.23673e-015 9.34288e-015
lhumerus -33.4984 3.89986 83.0057
lradius 26.6808
lwrist 6.60263
lhand -29.4532 17.4683
lfingers 7.12502
lthumb -2.7894 47.4298
rfemur -3.91535 5.71401 35.3192
rtibia 29.1367
rfoot -16.9213 -9.30212
rtoes 9.92702
lfemur -26.0313 1.08755 -12.0014
ltibia 56.4548
lfoot -8.11816 4.05961
ltoes -4.17947
355
root 0.345582 17.859 33.148 -2.60413 -4.15804 -7.8868
lowerback 11.9839 1.34317 5.89694
upperback -0.15102 2.74731 1.94109
thorax -6.71817 1.17607 -1.74756
lowerneck -16.4747 -3.19984 -1.79959
upperneck 20.017 -4.42475 1.98191
head 9.09073 -1.99159 0.417192
rclavicle 2.53761e-014 1.25234e-014
rhumerus -25.3112 -11.8578 -81.7163
rradius 30.9305
rwrist 0.377692
rhand -18.5166 23.1024
rfingers 7.12502
rthumb 7.77178 -6.7348
lclavicle 2.53761e-014 1.25234e-014
lhumerus -33.7694 3.87871 83.0494
lradius 26.6387
lwrist 7.31765
lhand -28.6149 18.0792
lfingers 7.12502
lthumb -1.97978 48.0498
rfemur -3.40016 5.87452 35.5044
rtibia 28.9419
rfoot -16.9481 -9.34506
rtoes 10.9862
lfemur -26.4404 0.954029 -11.7889
ltibia 54.4815
lfoot -8.38102 4.68196
ltoes -3.64439
356
root 0.348875 17.8516 33.3218 -2.45278 -4.20824 -7.94621
lowerback 11.799 1.4264 6.09895
upperback -0.181518 2.86847 1.87935
thorax -6.62515 1.22992 -1.93959
lowerneck -16.353 -3.24501 -1.80583
upperneck 19.8995 -4.4954 2.03133
head 9.03085 -2.02177 0.428655
rclavicle -2.75627e-014 -4.77083e-015
rhumerus -25.1079 -11.5058 -81.785
rradius 31.4284
rwrist -0.0892067
rhand -18.4742 22.9118
rfingers 7.12502
rthumb 7.81265 -6.92385
lclavicle -2.75627e-014 -4.77083e-015
lhumerus -34.0539 3.59826 83.2203
lradius 26.4045
lwrist 8.83382
lhand -30.2116 15.0746
lfingers 7.12502
lthumb -3.52177 45.0253
rfemur -2.7883 6.0607 35.6067
rtibia 28.7083
rfoot -17.511 -9.36847
rtoes 11.5887
lfemur -26.8204 0.534468 -11.6379
ltibia 52.1841
lfoot -8.48013 5.50939
ltoes -5.82782
357
root 0.355778 17.8439 33.4778 -2.22104 -4.17911 -7.94282
lowerback 11.8652 1.46112 6.23657
upperback -0.300226 2.94173 1.81944
thorax -6.77448 1.25291 -2.09632
lowerneck -16.6035 -3.35881 -1.7438
upperneck 20.0692 -4.639 1.89273
head 9.13291 -2.0955 0.347758
rclavicle 1.60767e-014 -4.77083e-015
rhumerus -24.7792 -11.5469 -81.7746
rradius 31.7098
rwrist -0.0624369
rhand -18.4179 22.9
rfingers 7.12502
rthumb 7.86703 -6.93359
lclavicle 1.60767e-014 -4.77083e-015
lhumerus -34.4037 4.07502 82.9862
lradius 26.2276
lwrist 8.59991
lhand -29.2673 19.6051
lfingers 7.12502
lthumb -2.60989 49.5689
rfemur -2.32638 6.26471 35.6392
rtibia 28.3645
rfoot -17.7262 -9.62156
rtoes 11.8523
lfemur -27.3485 -0.117307 -11.4851
ltibia 49.7393
lfoot -8.6008 6.70072
ltoes -7.29462
358
root 0.361759 17.8377 33.642 -2.06333 -4.30109 -8.00655
lowerback 11.9489 1.4987 6.30616
upperback -0.405863 3.01518 1.82976
thorax -6.9267 1.27935 -2.14167
lowerneck -16.7849 -3.38765 -1.67817
upperneck 20.2815 -4.6722 1.77247
head 9.23541 -2.11572 0.287074
rclavicle -1.07716e-014 -4.17448e-015
rhumerus -24.4106 -11.3418 -81.8449
rradius 31.905
rwrist -0.269783
rhand -18.3102 22.8833
rfingers 7.12502
rthumb 7.97093 -6.94636
lclavicle -1.07716e-014 -4.17448e-015
lhumerus -34.9171 4.59532 82.7371
lradius 26.2391
lwrist 8.3638
lhand -27.5423 33.2486
lfingers 7.12502
lthumb -0.94385 63.2262
rfemur -1.73689 6.37456 35.747
rtibia 27.969
rfoot -17.9635 -9.72239
rtoes 9.51941
lfemur -27.5793 -0.586014 -11.2364
ltibia 47.1035
lfoot -7.57646 7.41429
ltoes -5.40483
359
root 0.371891 17.8397 33.8188 -1.86407 -4.47021 -8.14531
lowerback 11.7903 1.55717 6.49776
upperback -0.458155 3.1141 1.89754
thorax -6.87963 1.32275 -2.188
lowerneck -16.6771 -3.32886 -1.79266
upperneck 20.238 -4.56088 1.77728
head 9.20146 -2.07341 0.324077
rclavicle -3.14452e-014 -2.14687e-014
rhumerus -24.1088 -10.7698 -81.8589
rradius 32.2382
rwrist -0.65823
rhand -18.2225 22.926
rfingers 7.12502
rthumb 8.05559 -6.90043
lclavicle -3.14452e-014 -2.14687e-014
lhumerus -35.3786 5.20085 82.6267
lradius 26.2475
lwrist 8.50552
lhand -29.7614 22.3022
lfingers 7.12502
lthumb -3.08701 52.2596
rfemur -1.07782 6.32983 35.8464
rtibia 27.5791
rfoot -18.9114 -9.2305
rtoes 5.78695
lfemur -27.7463 -0.912997 -10.9768
ltibia 44.3434
lfoot -6.2038 7.10753
ltoes -2.16413
360
root 0.381147 17.8353 33.9906 -1.58125 -4.50505 -8.14341
lowerback 11.5064 1.62355 6.63565
upperback -0.458376 3.1934 1.85248
thorax -6.70271 1.36227 -2.31366
lowerneck -16.6427 -3.3578 -1.85673
upperneck 19.986 -4.58786 1.82353
head 9.11127 -2.08808 0.349224
rclavicle -1.44802e-014 -1.8487e-014
rhumerus -23.8122 -10.6921 -81.8776
rradius 32.7955
rwrist -0.850032
rhand -18.0776 22.7203
rfingers 7.12502
rthumb 8.19546 -7.10072
lclavicle -1.44802e-014 -1.8487e-014
lhumerus -35.4914 5.48828 82.5174
lradius 26.0037
lwrist 8.89924
lhand -29.801 19.5252
lfingers 7.12502
lthumb -3.12524 49.4821
rfemur -0.527542 6.51366 35.8135
rtibia 27.155
rfoot -18.746 -9.62831
rtoes 8.10486
lfemur -27.955 -1.33206 -10.8351
ltibia 41.534
lfoot -5.91434 6.22643
ltoes -2.19678
